Coordinates
version=1
nRows=7
nColumns=63
inDegrees=yes

Units are S.I. units (second, meters, Newtons, ...)
If the header above contains a line with 'inDegrees', this indicates whether rotational values are in degrees (yes) or radians (no).

endheader
time	pelvis_tilt	pelvis_list	pelvis_rotation	pelvis_tx	pelvis_ty	pelvis_tz	hip_flexion_r	hip_adduction_r	hip_rotation_r	knee_angle_r	knee_angle_r_beta	ankle_angle_r	subtalar_angle_r	mtp_angle_r	hip_flexion_l	hip_adduction_l	hip_rotation_l	knee_angle_l	knee_angle_l_beta	ankle_angle_l	subtalar_angle_l	mtp_angle_l	L5_S1_Flex_Ext	L5_S1_Lat_Bending	L5_S1_axial_rotation	L4_L5_Flex_Ext	L4_L5_Lat_Bending	L4_L5_axial_rotation	L3_L4_Flex_Ext	L3_L4_Lat_Bending	L3_L4_axial_rotation	L2_L3_Flex_Ext	L2_L3_Lat_Bending	L2_L3_axial_rotation	L1_L2_Flex_Ext	L1_L2_Lat_Bending	L1_L2_axial_rotation	L1_T12_Flex_Ext	L1_T12_Lat_Bending	L1_T12_axial_rotation	Abs_r3	Abs_r2	Abs_r1	Abs_t1	Abs_t2	neck_flexion	neck_bending	neck_rotation	arm_flex_r	arm_add_r	arm_rot_r	elbow_flex_r	pro_sup_r	wrist_flex_r	wrist_dev_r	arm_flex_l	arm_add_l	arm_rot_l	elbow_flex_l	pro_sup_l	wrist_flex_l	wrist_dev_l
      0.00000000	     -1.32626159	     -2.33518477	     91.96260791	      0.27775976	      0.75091987	      0.65034992	      1.24664247	     -1.44249609	    -12.44957649	      8.94815208	      0.15617472	     34.04509530	     17.82886966	      0.00000000	      3.71755571	      1.09129535	     -1.10539376	      8.63777991	      0.15075770	     37.25442201	      7.53770335	      0.00000000	      0.22586479	     -0.34070422	     -0.08217568	      0.41945350	     -0.45313661	     -0.08731166	      0.37107326	     -0.82838824	     -0.08731166	      0.25814087	     -0.82838824	     -0.07190372	      0.20973804	     -0.69476404	     -0.06676774	      0.12905914	     -0.52775083	     -0.06163176	      1.61332961	     -3.85411425	     -0.45703650	      0.00000000	      0.00000000	     11.08224896	      4.00505011	     -2.34920044	     15.46928295	    -17.02145971	     51.95094389	     66.63222988	     54.69545862	      3.80788909	     -3.69973797	     14.47621270	    -22.04529705	     48.20073696	     71.42076771	     76.94938444	      7.49115296	      7.02443054
      0.01694915	     -1.11775534	     -2.48360245	     91.89555779	      0.27677916	      0.75030099	      0.64987671	      1.34948269	     -1.34974194	    -12.07240372	      9.02115442	      0.15744885	     34.02622242	     17.68741976	      0.00000000	      3.79897608	      0.97093130	     -0.53037718	      8.54774496	      0.14918629	     37.08037353	      6.72608569	      0.00000000	      0.24192100	     -0.28883266	     -0.23650284	      0.44927148	     -0.38414744	     -0.25128427	      0.39745200	     -0.70226774	     -0.25128427	      0.27649151	     -0.70226774	     -0.20693998	      0.22464784	     -0.58898757	     -0.19215856	      0.13823366	     -0.44740180	     -0.17737713	      1.72801748	     -3.26733286	     -1.31535784	      0.00000000	      0.00000000	     11.61544069	      3.88936111	     -0.74131807	     16.01492160	    -17.34362981	     52.85951447	     67.70063956	     46.60861250	      3.07481352	     -1.68124380	     13.76427812	    -21.91690873	     46.69490190	     72.12390635	     82.32146116	      9.33507982	      8.14386651
      0.03389831	     -1.07081636	     -2.59047360	     91.82034809	      0.27644190	      0.74988751	      0.64933751	      1.45163359	     -1.38748953	    -11.83862063	      9.14380808	      0.15958956	     34.13150265	     17.57493130	      0.00000000	      3.76926441	      0.94531292	     -0.57632397	      8.32868076	      0.14536290	     36.94214646	      6.73172380	      0.00000000	      0.25894059	     -0.27614343	     -0.31027805	      0.48087857	     -0.36727077	     -0.32967043	      0.42541349	     -0.67141514	     -0.32967043	      0.29594320	     -0.67141514	     -0.27149329	      0.24045223	     -0.56311169	     -0.25210092	      0.14795865	     -0.42774618	     -0.23270854	      1.84958673	     -3.12378974	     -1.72567344	      0.00000000	      0.00000000	     11.84079781	      3.86254566	     -0.28371286	     16.04862692	    -17.56478560	     52.95609751	     68.65920921	     43.53235505	      2.37891811	     -0.17828679	     13.72325116	    -22.05512130	     46.55836722	     72.88346119	     84.07733507	     10.43596510	      9.64652577
      0.05084746	     -0.92335581	     -2.56717711	     92.07170821	      0.27571750	      0.74975314	      0.64892375	      1.24699790	     -1.26048875	    -11.69120437	      8.88344677	      0.15504540	     34.09854257	     17.29605804	      0.00000000	      3.79335780	      0.87334810	      0.51068383	      8.44058495	      0.14731600	     36.86514843	      5.63202751	      0.00000000	      0.26087679	     -0.25294707	     -0.45181186	      0.48447428	     -0.33641960	     -0.48005010	      0.42859448	     -0.61501550	     -0.48005010	      0.29815608	     -0.61501550	     -0.39533538	      0.24225019	     -0.51580966	     -0.36709714	      0.14906500	     -0.39181501	     -0.33885890	      1.86341681	     -2.86138784	     -2.51284203	      0.00000000	      0.00000000	     11.78296021	      3.93217987	      0.36531472	     16.43105780	    -17.91741363	     53.91516007	     69.36198460	     40.74687103	      1.98055311	      0.73439116	     13.67846602	    -22.04115955	     46.15364763	     73.37555538	     84.57514622	     12.39970985	     11.00120488
      0.06779661	     -0.85158258	     -2.52100643	     92.27602894	      0.27540276	      0.74977070	      0.64819273	      1.03924404	     -1.17768651	    -11.46383231	      8.67473028	      0.15140261	     34.13428348	     16.88340963	      0.00000000	      3.60827018	      0.81931158	      0.97415443	      8.20318233	      0.14317254	     36.75838869	      5.39178911	      0.00000000	      0.26984829	     -0.24848756	     -0.52045118	      0.50113526	     -0.33048845	     -0.55297938	      0.44333376	     -0.60417265	     -0.55297938	      0.30840961	     -0.60417265	     -0.45539478	      0.25058112	     -0.50671583	     -0.42286658	      0.15419131	     -0.38490723	     -0.39033838	      1.92749936	     -2.81094097	     -2.89459331	      0.00000000	      0.00000000	     11.53353870	      3.94533468	      0.30430494	     16.34206450	    -18.25847817	     54.36871487	     69.98704987	     39.80237630	      1.97512505	      1.45317453	     14.07921231	    -22.19258103	     46.80861825	     73.81216815	     83.43811290	     13.20076593	     12.19701946
      0.08474576	     -0.81167417	     -2.43115275	     92.48224739	      0.27518343	      0.74989285	      0.64752157	      0.75968394	     -1.11346142	    -11.26231986	      8.37542765	      0.14617879	     34.15340087	     16.50609000	      0.00000000	      3.42043859	      0.79576640	      1.58841461	      8.04974880	      0.14049462	     36.64839849	      4.98402876	      0.00000000	      0.27252726	     -0.25279863	     -0.57022031	      0.50611038	     -0.33622217	     -0.60585908	      0.44773504	     -0.61465458	     -0.60585908	      0.31147141	     -0.61465458	     -0.49894277	      0.25306881	     -0.51550696	     -0.46330401	      0.15572208	     -0.39158507	     -0.42766524	      1.94663497	     -2.85970862	     -3.17139432	      0.00000000	      0.00000000	     11.20666867	      4.03704017	      0.00379666	     16.23152680	    -18.58982647	     54.90080878	     70.53032279	     38.98312355	      2.08395429	      2.35432071	     14.51626368	    -22.29280301	     47.45802222	     74.14286607	     81.39840505	     13.96006241	     13.49793520
      0.10169492	     -0.74212371	     -2.25537302	     92.76516897	      0.27493122	      0.75013194	      0.64702991	      0.42417774	     -1.01327211	    -11.27866045	      8.16227617	      0.14245859	     34.20743181	     16.19285472	      0.00000000	      3.25413796	      0.72301150	      1.91626944	      8.10338017	      0.14143066	     36.75009886	      4.89691255	      0.00000000	      0.25726293	     -0.25417646	     -0.62767158	      0.47776299	     -0.33805469	     -0.66690105	      0.42265727	     -0.61800465	     -0.66690105	      0.29402581	     -0.61800465	     -0.54921263	      0.23889436	     -0.51831664	     -0.50998316	      0.14700004	     -0.39371934	     -0.47075368	      1.83760341	     -2.87529497	     -3.49092102	      0.00000000	      0.00000000	     10.88140371	      4.23219684	     -0.19637498	     16.22913387	    -18.85415016	     55.55836395	     70.84231416	     38.65605458	      2.27128720	      3.40802689	     14.89923840	    -22.32195047	     47.85753257	     74.33491610	     79.75430938	     14.84854846	     14.53299867
